<?xml version="1.0" encoding="utf-8"?>
<!-- Generator: Adobe Illustrator 24.1.0, SVG Export Plug-In . SVG Version: 6.00 Build 0)  -->
<svg version="1.1" id="Capa_1" xmlns="http://www.w3.org/2000/svg" xmlns:xlink="http://www.w3.org/1999/xlink" x="0px" y="0px"
	 viewBox="0 0 42 19" style="enable-background:new 0 0 42 19;" xml:space="preserve">
<style type="text/css">
	.st0{fill:none;}
</style>
<path class="st0" stroke="white" d="M40.8,9.2l-7.3-7.3c-0.2-0.2-0.5-0.2-0.7,0c-0.2,0.2-0.2,0.5,0,0.7L39.3,9H1.5C1.3,9,1.1,9.2,1.1,9.5
	c0,0.3,0.2,0.5,0.5,0.5h37.7l-6.4,6.4c-0.2,0.2-0.2,0.5,0,0.7c0.1,0.1,0.2,0.1,0.3,0.1s0.2,0,0.3-0.1l7.3-7.3
	C41,9.7,41,9.3,40.8,9.2z"/>
</svg>
