<svg width="39" height="37" viewBox="0 0 39 37" fill="none" xmlns="http://www.w3.org/2000/svg">
<path d="M38.9285 19.443C38.7835 19.7828 38.4452 20.0045 38.0697 20.0045H27.8845C27.8845 20.0045 27.8845 35.5898 27.8845 36.0913C27.8845 36.5929 27.468 37 26.955 37H12.0833C11.5702 37 11.1538 36.5929 11.1538 36.0913L11.1538 20.0045H0.929501C0.55402 20.0045 0.21566 19.7827 0.0706612 19.4447C-0.0725077 19.1049 0.00556834 18.7142 0.271429 18.4543L18.8146 0.267136C18.9893 0.0963402 19.2254 0 19.4726 0C19.7198 0 19.956 0.0963402 20.1307 0.265347L38.7278 18.4525C38.9936 18.7125 39.0735 19.1031 38.9285 19.443Z" fill="url(#paint0_linear)"/>
<defs>
<linearGradient id="paint0_linear" x1="0" y1="37" x2="36.9488" y2="-1.94602" gradientUnits="userSpaceOnUse">
<stop stop-color="#FDD226"/>
<stop offset="1" stop-color="#FF5753"/>
</linearGradient>
</defs>
</svg>
